<svg xmlns="http://www.w3.org/2000/svg" viewBox="0 0 128 128">
<path fill="#005" d="m0-0.00001h128v128h-128z"/>
<path fill="#fff" d="m24 13c-6.0767 0-11 4.9233-11 11v80c0 6.0767 4.9233 11 11 11h80c6.0767 0 11-4.9233 11-11v-80c0-6.0767-4.9233-11-11-11h-80zm0 2h80c5.0033 0 9 3.9967 9 9v80c0 5.0033-3.9967 9-9 9h-80c-5.0033 0-9-3.9967-9-9v-80c0-5.0033 3.9967-9 9-9zm41.4395 18.6699c-12.78 0-21.7793 8.18969-21.7793 18.1797 0 8.46 5.48906 13.771 11.7891 16.291l7.29102 3.05859c4.95 1.98 7.91992 2.87992 7.91992 5.66992 0 2.61-1.98016 4.14062-6.66016 4.14062-4.32 0-9.53969-2.33992-13.6797-5.66992l-8.8204 10.6211c6.3 5.67 14.7606 8.36914 22.1406 8.36914 14.58 0 22.8594-8.8207 22.8594-18.7207 0-8.1-4.13969-13.1395-11.4297-16.0195l-7.10937-2.78906c-5.31-2.07-8.64063-3.06156-8.64063-5.85156 0-2.61 2.33914-3.95898 6.11914-3.95898 4.32 0 7.74117 1.44047 11.7012 4.23047l7.7403-9.7206c-5.4-5.31-12.7814-7.83008-19.4414-7.83008z"/>
</svg>
